<mxfile host="app.diagrams.net" modified="2022-10-11T15:01:05.806Z" agent="5.0 (Windows NT 10.0; Win64; x64) AppleWebKit/537.36 (KHTML, like Gecko) Chrome/106.0.0.0 Safari/537.36 Edg/106.0.1370.37" etag="1jo76SFcQYVCvbQ-Wpmi" version="20.4.0" type="github">
  <diagram id="kRn0oJuTtB-_jacdjP4z" name="Page-1">
    <mxGraphModel dx="1038" dy="617" grid="1" gridSize="10" guides="1" tooltips="1" connect="1" arrows="1" fold="1" page="1" pageScale="1" pageWidth="827" pageHeight="1169" math="0" shadow="0">
      <root>
        <mxCell id="0" />
        <mxCell id="1" parent="0" />
        <mxCell id="7VTbb_rgQeG7kAdWoUg8-24" style="edgeStyle=orthogonalEdgeStyle;curved=1;orthogonalLoop=1;jettySize=auto;html=1;exitX=0;exitY=1;exitDx=0;exitDy=0;entryX=1;entryY=0;entryDx=0;entryDy=0;strokeColor=default;endArrow=oval;endFill=1;" edge="1" parent="1" source="7VTbb_rgQeG7kAdWoUg8-1" target="7VTbb_rgQeG7kAdWoUg8-3">
          <mxGeometry relative="1" as="geometry" />
        </mxCell>
        <mxCell id="7VTbb_rgQeG7kAdWoUg8-25" style="edgeStyle=orthogonalEdgeStyle;curved=1;orthogonalLoop=1;jettySize=auto;html=1;exitX=1;exitY=1;exitDx=0;exitDy=0;entryX=0;entryY=0;entryDx=0;entryDy=0;strokeColor=default;endArrow=oval;endFill=1;" edge="1" parent="1" source="7VTbb_rgQeG7kAdWoUg8-1" target="7VTbb_rgQeG7kAdWoUg8-4">
          <mxGeometry relative="1" as="geometry" />
        </mxCell>
        <mxCell id="7VTbb_rgQeG7kAdWoUg8-26" style="edgeStyle=orthogonalEdgeStyle;curved=1;orthogonalLoop=1;jettySize=auto;html=1;exitX=0.5;exitY=1;exitDx=0;exitDy=0;entryX=0.5;entryY=0;entryDx=0;entryDy=0;strokeColor=default;endArrow=oval;endFill=1;" edge="1" parent="1" source="7VTbb_rgQeG7kAdWoUg8-1" target="7VTbb_rgQeG7kAdWoUg8-23">
          <mxGeometry relative="1" as="geometry" />
        </mxCell>
        <mxCell id="7VTbb_rgQeG7kAdWoUg8-1" value="Application" style="ellipse;whiteSpace=wrap;html=1;aspect=fixed;fillColor=#e1d5e7;strokeColor=#9673a6;" vertex="1" parent="1">
          <mxGeometry x="341" y="230" width="120" height="120" as="geometry" />
        </mxCell>
        <mxCell id="7VTbb_rgQeG7kAdWoUg8-19" style="edgeStyle=orthogonalEdgeStyle;curved=1;orthogonalLoop=1;jettySize=auto;html=1;exitX=0.5;exitY=1;exitDx=0;exitDy=0;entryX=0;entryY=0.5;entryDx=0;entryDy=0;strokeColor=default;endArrow=oval;endFill=1;" edge="1" parent="1" source="7VTbb_rgQeG7kAdWoUg8-2" target="7VTbb_rgQeG7kAdWoUg8-1">
          <mxGeometry relative="1" as="geometry" />
        </mxCell>
        <mxCell id="7VTbb_rgQeG7kAdWoUg8-2" value="Signature éléctronique" style="ellipse;whiteSpace=wrap;html=1;fillColor=#f8cecc;strokeColor=#b85450;" vertex="1" parent="1">
          <mxGeometry x="170" y="70" width="151" height="89" as="geometry" />
        </mxCell>
        <mxCell id="7VTbb_rgQeG7kAdWoUg8-3" value="Smartphones" style="ellipse;whiteSpace=wrap;html=1;fillColor=#b1ddf0;strokeColor=#10739e;" vertex="1" parent="1">
          <mxGeometry x="170" y="440" width="120" height="80" as="geometry" />
        </mxCell>
        <mxCell id="7VTbb_rgQeG7kAdWoUg8-4" value="Accès internet" style="ellipse;whiteSpace=wrap;html=1;fillColor=#b1ddf0;strokeColor=#10739e;" vertex="1" parent="1">
          <mxGeometry x="511" y="440" width="120" height="80" as="geometry" />
        </mxCell>
        <mxCell id="7VTbb_rgQeG7kAdWoUg8-18" style="edgeStyle=orthogonalEdgeStyle;curved=1;orthogonalLoop=1;jettySize=auto;html=1;exitX=0.5;exitY=1;exitDx=0;exitDy=0;entryX=1;entryY=0.5;entryDx=0;entryDy=0;strokeColor=default;endArrow=oval;endFill=1;" edge="1" parent="1" source="7VTbb_rgQeG7kAdWoUg8-5" target="7VTbb_rgQeG7kAdWoUg8-1">
          <mxGeometry relative="1" as="geometry" />
        </mxCell>
        <mxCell id="7VTbb_rgQeG7kAdWoUg8-27" style="edgeStyle=orthogonalEdgeStyle;curved=1;orthogonalLoop=1;jettySize=auto;html=1;exitX=0.011;exitY=0.663;exitDx=0;exitDy=0;strokeColor=default;exitPerimeter=0;endArrow=none;endFill=0;" edge="1" parent="1" source="7VTbb_rgQeG7kAdWoUg8-5">
          <mxGeometry relative="1" as="geometry">
            <mxPoint x="474.20000000000005" y="128.20600000000002" as="sourcePoint" />
            <mxPoint x="299" y="137.62988213855658" as="targetPoint" />
            <Array as="points">
              <mxPoint x="492" y="128" />
              <mxPoint x="490" y="128" />
              <mxPoint x="490" y="130" />
              <mxPoint x="499" y="130" />
              <mxPoint x="499" y="260" />
              <mxPoint x="299" y="260" />
            </Array>
          </mxGeometry>
        </mxCell>
        <mxCell id="7VTbb_rgQeG7kAdWoUg8-5" value="&lt;span style=&quot;&quot;&gt;	&lt;/span&gt;Outils de créativité (planning, fiche de renseignements)" style="ellipse;whiteSpace=wrap;html=1;fillColor=#f8cecc;strokeColor=#b85450;" vertex="1" parent="1">
          <mxGeometry x="485" y="70" width="150" height="89" as="geometry" />
        </mxCell>
        <mxCell id="7VTbb_rgQeG7kAdWoUg8-23" value="Accès sécurisé" style="ellipse;whiteSpace=wrap;html=1;fillColor=#b1ddf0;strokeColor=#10739e;" vertex="1" parent="1">
          <mxGeometry x="341" y="481" width="120" height="80" as="geometry" />
        </mxCell>
        <mxCell id="7VTbb_rgQeG7kAdWoUg8-30" style="edgeStyle=orthogonalEdgeStyle;curved=1;orthogonalLoop=1;jettySize=auto;html=1;exitX=0.5;exitY=1;exitDx=0;exitDy=0;entryX=0.5;entryY=0;entryDx=0;entryDy=0;strokeColor=default;endArrow=oval;endFill=1;" edge="1" parent="1" source="7VTbb_rgQeG7kAdWoUg8-29" target="7VTbb_rgQeG7kAdWoUg8-1">
          <mxGeometry relative="1" as="geometry" />
        </mxCell>
        <mxCell id="7VTbb_rgQeG7kAdWoUg8-29" value="Apprenants" style="ellipse;whiteSpace=wrap;html=1;fillColor=#f8cecc;strokeColor=#b85450;" vertex="1" parent="1">
          <mxGeometry x="326" y="30" width="150" height="89" as="geometry" />
        </mxCell>
        <mxCell id="7VTbb_rgQeG7kAdWoUg8-36" style="edgeStyle=orthogonalEdgeStyle;curved=1;orthogonalLoop=1;jettySize=auto;html=1;exitX=1;exitY=0.5;exitDx=0;exitDy=0;entryX=0;entryY=0;entryDx=0;entryDy=0;strokeColor=default;endArrow=oval;endFill=1;" edge="1" parent="1" source="7VTbb_rgQeG7kAdWoUg8-31" target="7VTbb_rgQeG7kAdWoUg8-1">
          <mxGeometry relative="1" as="geometry" />
        </mxCell>
        <mxCell id="7VTbb_rgQeG7kAdWoUg8-31" value="Intervenant" style="ellipse;whiteSpace=wrap;html=1;fillColor=#f8cecc;strokeColor=#b85450;" vertex="1" parent="1">
          <mxGeometry x="40" y="160" width="150" height="89" as="geometry" />
        </mxCell>
        <mxCell id="7VTbb_rgQeG7kAdWoUg8-35" style="edgeStyle=orthogonalEdgeStyle;curved=1;orthogonalLoop=1;jettySize=auto;html=1;exitX=0;exitY=0.5;exitDx=0;exitDy=0;entryX=1;entryY=0;entryDx=0;entryDy=0;strokeColor=default;endArrow=oval;endFill=1;" edge="1" parent="1" source="7VTbb_rgQeG7kAdWoUg8-32" target="7VTbb_rgQeG7kAdWoUg8-1">
          <mxGeometry relative="1" as="geometry" />
        </mxCell>
        <mxCell id="7VTbb_rgQeG7kAdWoUg8-32" value="Administration" style="ellipse;whiteSpace=wrap;html=1;fillColor=#f8cecc;strokeColor=#b85450;" vertex="1" parent="1">
          <mxGeometry x="610" y="160" width="150" height="89" as="geometry" />
        </mxCell>
      </root>
    </mxGraphModel>
  </diagram>
</mxfile>
